<svg width="16" height="17" viewBox="0 0 16 17" fill="none" xmlns="http://www.w3.org/2000/svg">
<path d="M7.77344 0.59729C6.24682 0.59729 4.75448 1.04999 3.48513 1.89813C2.21579 2.74628 1.22646 3.95178 0.642246 5.3622C0.0580319 6.77262 -0.0948251 8.3246 0.203005 9.82189C0.500834 11.3192 1.23597 12.6945 2.31546 13.774C3.39495 14.8535 4.7703 15.5886 6.26759 15.8865C7.76488 16.1843 9.31686 16.0314 10.7273 15.4472C12.1377 14.863 13.3432 13.8737 14.1913 12.6043C15.0395 11.335 15.4922 9.84266 15.4922 8.31604C15.49 6.26956 14.6761 4.30752 13.229 2.86045C11.782 1.41337 9.81992 0.599451 7.77344 0.59729ZM7.77344 14.8473C6.48168 14.8473 5.21893 14.4642 4.14487 13.7466C3.07081 13.0289 2.23369 12.0089 1.73935 10.8154C1.24502 9.62201 1.11568 8.30879 1.36769 7.04186C1.6197 5.77492 2.24174 4.61116 3.15515 3.69775C4.06856 2.78434 5.23232 2.1623 6.49926 1.91029C7.7662 1.65828 9.07941 1.78762 10.2728 2.28195C11.4663 2.77629 12.4863 3.61341 13.204 4.68747C13.9216 5.76153 14.3047 7.02428 14.3047 8.31604C14.3027 10.0476 13.614 11.7077 12.3896 12.9322C11.1651 14.1566 9.50503 14.8453 7.77344 14.8473ZM12.5234 8.31604C12.5234 8.47351 12.4609 8.62454 12.3495 8.73589C12.2382 8.84723 12.0872 8.90979 11.9297 8.90979H7.77344C7.61597 8.90979 7.46495 8.84723 7.3536 8.73589C7.24225 8.62454 7.17969 8.47351 7.17969 8.31604V4.15979C7.17969 4.00232 7.24225 3.8513 7.3536 3.73995C7.46495 3.6286 7.61597 3.56604 7.77344 3.56604C7.93091 3.56604 8.08194 3.6286 8.19329 3.73995C8.30464 3.8513 8.36719 4.00232 8.36719 4.15979V7.72229H11.9297C12.0872 7.72229 12.2382 7.78485 12.3495 7.8962C12.4609 8.00754 12.5234 8.15857 12.5234 8.31604Z" fill="white"/>
</svg>
